<svg xmlns="http://www.w3.org/2000/svg" width="21" height="24" fill="none" viewBox="0 0 21 24"><path fill="#A7AAAD" fill-rule="evenodd" d="M10.1538 0L20.3077 4.45957V11.1076C20.3077 16.7747 16.5408 22.1405 11.2289 23.8332C10.531 24.0556 9.77674 24.0556 9.07875 23.8332C3.76694 22.1405 0 16.7747 0 11.1076V4.45957L10.1538 0Z" clip-rule="evenodd"/><rect width="3.046" height="3" x="8.631" y="15.5" fill="#fff" rx="1.5"/><path fill="#fff" d="M8.69834 7.06333C8.66178 6.48729 9.11913 6 9.69633 6H10.6115C11.1887 6 11.6461 6.48729 11.6095 7.06333L11.2288 13.0633C11.1953 13.59 10.7585 14 10.2308 14H10.0771C9.54941 14 9.11253 13.59 9.07911 13.0633L8.69834 7.06333Z"/></svg>